<?xml version="1.0" encoding="UTF-8"?>
<!DOCTYPE svg PUBLIC "-//W3C//DTD SVG 1.1//EN" "http://www.w3.org/Graphics/SVG/1.1/DTD/svg11.dtd">
<!-- Creator: CorelDRAW -->
<svg xmlns="http://www.w3.org/2000/svg" xml:space="preserve" width="2048px" height="2048px" style="shape-rendering:geometricPrecision; text-rendering:geometricPrecision; image-rendering:optimizeQuality; fill-rule:evenodd; clip-rule:evenodd"
viewBox="0 0 2048 2048"
 xmlns:xlink="http://www.w3.org/1999/xlink">
 <defs>
  <style type="text/css">
   <![CDATA[
    .fil2 {fill:none}
    .fil0 {fill:#212121;fill-rule:nonzero}
    .fil1 {fill:#66BB6A;fill-rule:nonzero}
   ]]>
  </style>
 </defs>
 <g id="Layer_x0020_1">
  <metadata id="CorelCorpID_0Corel-Layer"/>
  <g id="_460790552">
   <polygon id="_460791224" class="fil0" points="1055.21,882.466 1055.21,1168.8 1007.21,1168.8 1007.21,882.466 "/>
   <polygon id="_460791392" class="fil0" points="1568.33,1168.8 1568.33,1049.63 479.671,1049.63 479.671,1168.8 431.671,1168.8 431.671,1025.9 431.671,1025.63 431.671,1001.63 455.671,1001.63 1592.33,1001.63 1616.33,1001.63 1616.33,1025.63 1616.33,1168.8 "/>
   <g>
    <path id="_460791512" class="fil1" d="M961.169 614.373l15.241 0c6.43465,0 12.2776,2.53465 16.5874,6.6567 5.17087,4.07008 10.5106,7.30985 15.9354,9.49961 4.88504,1.97244 9.92717,3.05551 15.0662,3.05551 5.13898,0 10.1811,-1.08307 15.0662,-3.05551 5.91615,-2.38819 11.7295,-6.02599 17.3351,-10.6252l15.1878 18.4689 -15.2221 -18.5551c4.46811,-3.66496 9.86221,-5.44725 15.2221,-5.44489l0.056693 0 15.1854 0c37.6548,0 71.8713,15.3874 96.6615,40.1776 24.789,24.7902 40.1776,59.0079 40.1776,96.6627l0 67.7056c0,13.2543 -10.7457,24 -24,24l-351.34 0c-13.2543,0 -24,-10.7457 -24,-24l0 -67.7056c0,-37.6548 15.3874,-71.8725 40.1776,-96.6627 24.7902,-24.7902 59.0079,-40.1776 96.6627,-40.1776zm7.27323 48l-7.27323 0c-24.4051,0 -46.6122,10.0028 -62.7249,26.1154 -16.1126,16.1126 -26.1154,38.3197 -26.1154,62.7249l0 43.7055 303.34 0 0 -43.7055c0,-24.4051 -10.0028,-46.6111 -26.1154,-62.7249 -16.1126,-16.1126 -38.3185,-26.1154 -62.7237,-26.1154l-7.27442 0c-7.2319,5.15433 -14.8075,9.41694 -22.6772,12.5941 -10.5827,4.27205 -21.5799,6.61772 -32.8796,6.61772 -11.2996,0 -22.2969,-2.34567 -32.8796,-6.61772 -7.86969,-3.17835 -15.4453,-7.43977 -22.6772,-12.5941z"/>
    <path id="_460791200" class="fil1" d="M1024 286.624c38.9705,0 74.6729,9.70985 100.445,30.3177 24.6543,19.715 39.7099,48.3154 39.7099,86.5654 0,39.267 -17.1095,91.6076 -44.1827,130.885 -24.5528,35.6197 -57.8587,61.6311 -95.9717,61.6311 -38.113,0 -71.419,-26.0114 -95.9717,-61.6311 -27.0732,-39.2776 -44.1827,-91.6182 -44.1827,-130.885 0,-38.25 15.0555,-66.8504 39.7099,-86.5654 25.7717,-20.6079 61.4741,-30.3177 100.445,-30.3177zm70.6312 67.6312c-16.6866,-13.3441 -41.9126,-19.6311 -70.6312,-19.6311 -28.7185,0 -53.9445,6.28701 -70.6312,19.6311 -13.363,10.6854 -21.5232,26.8925 -21.5232,49.252 0,30.6378 13.7705,72.0875 35.5583,103.699 16.2602,23.5902 36.3177,40.8177 56.5961,40.8177 20.2784,0 40.3359,-17.2276 56.5961,-40.8177 21.7878,-31.611 35.5583,-73.0607 35.5583,-103.699 0,-22.3595 -8.16024,-38.5666 -21.5232,-49.252z"/>
   </g>
   <g>
    <path id="_460791032" class="fil0" d="M1529.5 1532.83l15.241 0c6.43229,0 12.2728,2.52992 16.5815,6.64961 5.17323,4.07126 10.513,7.31457 15.9425,9.50552 4.88504,1.97244 9.92835,3.05551 15.0662,3.05551 5.1378,0 10.1799,-1.08307 15.0662,-3.05551 5.91733,-2.38819 11.7295,-6.02599 17.3351,-10.624l15.1878 18.4689 -15.2209 -18.5563c4.46693,-3.66496 9.86103,-5.44725 15.2209,-5.4437l0.0578741 0 15.1831 0c37.6548,0 71.8725,15.3874 96.6627,40.1776 24.7902,24.7902 40.1776,59.0067 40.1776,96.6615l0 67.7056c0,13.2543 -10.7457,24 -24,24l-351.34 0c-13.2543,0 -24,-10.7457 -24,-24l0 -67.7056c0,-37.6548 15.3874,-71.8713 40.1776,-96.6615 24.7902,-24.7902 59.0067,-40.1776 96.6615,-40.1776zm7.27323 48l-7.27323 0c-24.4051,0 -46.6111,10.0028 -62.7237,26.1154 -16.1126,16.1126 -26.1154,38.3185 -26.1154,62.7237l0 43.7055 303.34 0 0 -43.7055c0,-24.4051 -10.0028,-46.6111 -26.1154,-62.7237 -16.1126,-16.1126 -38.3197,-26.1154 -62.7249,-26.1154l-7.27442 0c-7.2319,5.15552 -14.8063,9.41694 -22.676,12.5929 -10.5839,4.27205 -21.5823,6.61772 -32.8796,6.61772 -11.2984,0 -22.2969,-2.34567 -32.8796,-6.61772 -7.87087,-3.17599 -15.4453,-7.43741 -22.6784,-12.5929z"/>
    <path id="_460791560" class="fil0" d="M1592.33 1205.08c38.9705,0 74.6729,9.70985 100.445,30.3177 24.6543,19.715 39.7099,48.3154 39.7099,86.5654 0,39.267 -17.1095,91.6087 -44.1827,130.886 -24.5528,35.6197 -57.8587,61.6311 -95.9717,61.6311 -38.113,0 -71.4201,-26.0114 -95.9729,-61.6311 -27.0732,-39.2776 -44.1827,-91.6194 -44.1827,-130.886 0,-38.25 15.0543,-66.8504 39.7099,-86.5666 25.7717,-20.6079 61.4764,-30.3166 100.446,-30.3166zm70.6312 67.6312c-16.6866,-13.3441 -41.9126,-19.6311 -70.6312,-19.6311 -28.7185,0 -53.9457,6.28701 -70.6323,19.6299 -13.363,10.6854 -21.5232,26.8925 -21.5232,49.2532 0,30.6378 13.7705,72.0886 35.5583,103.7 16.2602,23.5902 36.3177,40.8177 56.5973,40.8177 20.2784,0 40.3359,-17.2276 56.5961,-40.8177 21.7878,-31.611 35.5583,-73.0619 35.5583,-103.7 0,-22.3595 -8.16024,-38.5666 -21.5232,-49.252z"/>
   </g>
   <g>
    <path id="_460791344" class="fil0" d="M961.17 1532.83l15.241 0c6.43229,0 12.2728,2.52992 16.5815,6.64961 5.17323,4.07126 10.513,7.31457 15.9414,9.50552 4.88622,1.97244 9.92835,3.05551 15.0662,3.05551 5.1378,0 10.1799,-1.08307 15.0662,-3.05551 5.91733,-2.38819 11.7295,-6.02599 17.3351,-10.624l15.1878 18.4689 -15.2209 -18.5563c4.46693,-3.66496 9.86103,-5.44725 15.2209,-5.4437l0.0578741 0 15.1843 0c37.6548,0 71.8713,15.3874 96.6615,40.1776 24.7902,24.7902 40.1776,59.0067 40.1776,96.6615l0 67.7056c0,13.2543 -10.7457,24 -24,24l-351.34 0c-13.2543,0 -24,-10.7457 -24,-24l0 -67.7056c0,-37.6548 15.3874,-71.8713 40.1776,-96.6615 24.7902,-24.7902 59.0079,-40.1776 96.6627,-40.1776zm7.27442 48l-7.27442 0c-24.4051,0 -46.6122,10.0028 -62.7249,26.1154 -16.1126,16.1126 -26.1154,38.3185 -26.1154,62.7237l0 43.7055 303.34 0 0 -43.7055c0,-24.4051 -10.0028,-46.6111 -26.1154,-62.7237 -16.1126,-16.1126 -38.3185,-26.1154 -62.7237,-26.1154l-7.2756 0c-7.2319,5.15552 -14.8063,9.41694 -22.676,12.5929 -10.5839,4.27205 -21.5823,6.61772 -32.8796,6.61772 -11.2973,0 -22.2957,-2.34567 -32.8796,-6.61772 -7.86969,-3.17599 -15.4441,-7.43741 -22.676,-12.5929z"/>
    <path id="_460790336" class="fil0" d="M1024 1205.08c38.9705,0 74.6729,9.70985 100.445,30.3177 24.6543,19.715 39.7099,48.3154 39.7099,86.5654 0,39.267 -17.1095,91.6087 -44.1827,130.886 -24.5528,35.6197 -57.8587,61.6311 -95.9717,61.6311 -38.113,0 -71.419,-26.0114 -95.9717,-61.6311 -27.0732,-39.2776 -44.1827,-91.6194 -44.1827,-130.886 0,-38.25 15.0555,-66.8504 39.7099,-86.5654 25.7717,-20.6079 61.4741,-30.3177 100.445,-30.3177zm70.6312 67.6312c-16.6866,-13.3441 -41.9126,-19.6311 -70.6312,-19.6311 -28.7185,0 -53.9445,6.28701 -70.6312,19.6311 -13.363,10.6854 -21.5232,26.8925 -21.5232,49.252 0,30.6378 13.7705,72.0886 35.5583,103.7 16.2602,23.5902 36.3177,40.8177 56.5961,40.8177 20.2784,0 40.3359,-17.2276 56.5961,-40.8177 21.7878,-31.611 35.5583,-73.0619 35.5583,-103.7 0,-22.3595 -8.16024,-38.5666 -21.5232,-49.252z"/>
   </g>
   <g>
    <path id="_460790240" class="fil0" d="M392.84 1532.83l15.241 0c6.43229,0 12.2728,2.52992 16.5815,6.64961 5.17323,4.07126 10.513,7.31457 15.9414,9.50552 4.88622,1.97244 9.92835,3.05551 15.0662,3.05551 5.13898,0 10.1811,-1.08307 15.0662,-3.05551 5.91733,-2.38819 11.7295,-6.02599 17.3351,-10.624l15.1878 18.4689 -15.2209 -18.5563c4.46693,-3.66496 9.86103,-5.44725 15.2209,-5.4437l0.0578741 0 15.1843 0c37.6548,0 71.8713,15.3874 96.6615,40.1776 24.7902,24.7902 40.1776,59.0067 40.1776,96.6615l0 67.7056c0,13.2543 -10.7457,24 -24,24l-351.34 0c-13.2543,0 -24,-10.7457 -24,-24l0 -67.7056c0,-37.6548 15.3874,-71.8713 40.1776,-96.6615 24.7902,-24.7902 59.0079,-40.1776 96.6627,-40.1776zm7.27442 48l-7.27442 0c-24.4051,0 -46.6122,10.0028 -62.7249,26.1154 -16.1126,16.1126 -26.1154,38.3185 -26.1154,62.7237l0 43.7055 303.34 0 0 -43.7055c0,-24.4051 -10.0028,-46.6111 -26.1154,-62.7237 -16.1126,-16.1126 -38.3185,-26.1154 -62.7237,-26.1154l-7.2756 0c-7.23071,5.15552 -14.8051,9.41694 -22.676,12.5929 -10.5827,4.27205 -21.5799,6.61772 -32.8796,6.61772 -11.2973,0 -22.2957,-2.34567 -32.8796,-6.61772 -7.86969,-3.17599 -15.4441,-7.43741 -22.676,-12.5929z"/>
    <path id="_460790960" class="fil0" d="M455.67 1205.08c38.9693,0 74.6753,9.70985 100.445,30.3177 24.6567,19.715 39.7111,48.3154 39.7111,86.5654 0,39.267 -17.1095,91.6076 -44.1827,130.885 -24.5516,35.6197 -57.8599,61.6323 -95.9729,61.6323 -38.113,0 -71.419,-26.0114 -95.9717,-61.6311 -27.0732,-39.2776 -44.1827,-91.6194 -44.1827,-130.886 0,-38.25 15.0555,-66.8504 39.7099,-86.5654 25.7717,-20.6079 61.4741,-30.3177 100.445,-30.3177zm70.6312 67.6312c-16.6854,-13.3441 -41.9126,-19.6311 -70.6312,-19.6311 -28.7185,0 -53.9445,6.28701 -70.6312,19.6311 -13.363,10.6854 -21.5232,26.8925 -21.5232,49.252 0,30.6378 13.7705,72.0886 35.5583,103.7 16.2602,23.5902 36.3177,40.8177 56.5961,40.8177 20.2795,0 40.337,-17.2288 56.5973,-40.8189 21.7878,-31.611 35.5583,-73.0607 35.5583,-103.699 0,-22.3595 -8.16142,-38.5666 -21.5244,-49.252z"/>
   </g>
  </g>
 </g>
 <rect class="fil2" width="2048" height="2048"/>
</svg>
